<?xml version="1.0" encoding="UTF-8"?>
<svg width="90px" height="90px" viewBox="0 0 90 90" version="1.1" xmlns="http://www.w3.org/2000/svg" xmlns:xlink="http://www.w3.org/1999/xlink">
    <!-- Generator: Sketch 57.1 (83088) - https://sketch.com -->
    <title>Other/登录注册/Logo</title>
    <desc>Created with Sketch.</desc>
    <g id="Symbols" stroke="none" stroke-width="1" fill="none" fill-rule="evenodd">
        <g id="Other/登录注册/Logo">
            <g id="PC/80" transform="translate(9.000000, 9.000000)">
                <rect id="矩形" fill="#0C6DEB" x="0" y="0" width="72" height="72" rx="36"></rect>
                <g id="编组-4" transform="translate(14.000000, 14.200000)" fill="#FFFFFF">
                    <path d="M38.0122767,2.8 C39.0817956,2.8 39.9581166,3.62176243 40.0355724,4.66354844 L40.0411377,4.81380679 L40.0411377,32.4157891 C40.0411377,33.0826397 39.7088249,33.7025803 39.1604758,34.075981 L39.0189551,34.1640794 L22.8120872,43.5074406 C22.3830587,43.7506971 21.8664755,43.7753738 21.4197769,43.581155 L21.2736816,43.5083076 L5.02414791,34.1636459 C4.43959243,33.8329216 4.06156956,33.2384675 4.0068711,32.5799135 L4,32.4140551 L4,4.81380679 C4,3.75243065 4.82750759,2.88242385 5.87742515,2.80552525 L6.02886103,2.8 L38.0122767,2.8 Z M35.1289044,6.71308594 L8.96502874,6.71308594 C8.45309966,6.71308594 8.03117568,7.09844356 7.97351271,7.59490288 L7.96679688,7.7113178 L7.96679688,30.0047405 C7.96679688,30.6653242 8.29316522,31.2792676 8.83176055,31.6496267 L8.97076472,31.7370278 L21.384987,38.8496264 C21.7492972,39.0583542 22.1876836,39.0815502 22.5684585,38.9192131 L22.7082914,38.8496399 L35.1231332,31.7370208 C35.6963253,31.4086319 36.0667985,30.8202324 36.1204027,30.1687769 L36.1271362,30.0047134 L36.1271362,7.7113178 C36.1271362,7.16000957 35.6802126,6.71308594 35.1289044,6.71308594 Z M13.9089831,9.06761394 C14.2690321,9.06761394 14.6210695,9.17380089 14.9209604,9.3728622 L32.7482937,21.2062719 C33.6659636,21.8154019 33.9156155,23.0524118 33.3059068,23.9692107 C33.0784587,24.311217 32.7508255,24.5746902 32.3678043,24.723606 L24.9406611,27.6117098 C24.4794993,29.4050424 24.1985115,30.409362 24.0976978,30.6246687 C23.901422,31.0438527 23.5939141,31.4807799 23.1515476,31.5410913 C22.3939664,31.6443784 21.676719,30.5925547 21.4808491,30.2054847 C21.4034287,30.0524898 21.2733434,29.6873154 21.0905933,29.1099614 L14.7987108,31.5543372 C13.7719653,31.9535281 12.6157079,31.4455846 12.2161378,30.4198136 C12.126378,30.1893836 12.0803223,29.9442785 12.0803223,29.6970145 L12.0803223,10.8945392 C12.0803223,9.88555625 12.8990416,9.06761394 13.9089831,9.06761394 Z M15.7831635,14.7351778 C15.7460459,14.7911698 15.7262505,14.8568581 15.7262505,14.9240358 L15.7262505,26.7884771 C15.7262505,26.9772512 15.8792821,27.1302829 16.0680562,27.1302829 C16.1103657,27.1302829 16.1523074,27.1224277 16.1917493,27.1071167 L19.9591582,25.6429109 C18.8848802,22.4478212 18.3134322,20.7023581 18.2448142,20.4065219 L18.2409434,20.3906609 C18.0959146,19.9270211 17.980672,19.2715165 18.4259263,19.1019086 C18.8253396,18.9497627 19.1288482,19.073185 19.5250102,19.4123486 C19.6370871,19.5041912 19.7578424,19.6177746 19.8918915,19.7577558 C20.2425319,20.1239131 21.6141523,21.5623867 24.0067526,24.0731765 L27.4793897,22.7253562 C27.6553695,22.6570424 27.7426501,22.4590033 27.6743363,22.2830235 C27.6487727,22.2171703 27.6034334,22.1608551 27.5445547,22.1218239 L16.2569142,14.6391431 C16.0995723,14.5348397 15.8874669,14.5778359 15.7831635,14.7351778 Z" id="形状结合"></path>
                </g>
            </g>
        </g>
    </g>
</svg>